<svg preserveAspectRatio="none" width="100%" height="100%" overflow="visible" style="display: block;" viewBox="0 0 59.7682 20" fill="none" xmlns="http://www.w3.org/2000/svg">
<g id="Group 780">
<path id="Vector" d="M6.07452 14.0129V15.2613C6.07452 15.4651 6.2594 15.6435 6.47069 15.6435C6.68197 15.6435 6.86685 15.4651 6.86685 15.2613V13.911C6.86685 13.4524 6.89326 13.0193 6.9989 12.5606L8.24021 6.87909H12.3339L13.5752 12.5606C13.6809 13.0193 13.7073 13.4524 13.7073 13.911V15.2613C13.7073 15.4651 13.8922 15.6435 14.1034 15.6435C14.3147 15.6435 14.4996 15.4651 14.4996 15.2613V14.0129C14.4996 13.4779 14.5524 12.9683 14.6845 12.4587L16.0843 6.87909H20.5741L16.6917 19.618H12.2019L10.3003 12.3823L8.37227 19.618H3.88241L0 6.87909H4.48986L5.88964 12.4587C6.0217 12.9683 6.07452 13.4779 6.07452 14.0129Z" fill="var(--fill-0, #1D1D1D)"/>
<path id="Vector_2" d="M24.3244 9.53674e-06C25.9355 9.53674e-06 27.2296 1.24842 27.2296 2.80257C27.2296 4.35672 25.9355 5.60514 24.3244 5.60514C22.7134 5.60514 21.4192 4.33125 21.4192 2.80257C21.4192 1.2739 22.7398 9.53674e-06 24.3244 9.53674e-06ZM26.4901 6.87903V19.618H22.1587V6.87903H26.4901Z" fill="var(--fill-0, #1D1D1D)"/>
<path id="Vector_3" d="M33.4627 2.03812V5.52859C33.4627 6.75153 33.0929 7.74516 32.5647 8.68785C32.2742 9.17192 32.0365 9.656 31.878 10.1146C31.8252 10.3184 31.9572 10.4968 32.1421 10.5732C32.3798 10.6751 32.6175 10.5477 32.6967 10.3184C33.4362 8.17829 35.3114 6.49675 37.9525 6.49675C41.0162 6.49675 43.8686 9.12097 43.8686 13.2484C43.8686 17.3758 41.0162 20 37.6884 20C36.183 20 34.3342 19.3885 33.357 18.1401V19.6178H29.1313V2.03812H33.4627ZM36.4471 16.2802C38.1638 16.2802 39.4315 14.9809 39.4315 13.2484C39.4315 11.5159 38.1638 10.2165 36.4471 10.2165C34.7304 10.2165 33.4627 11.5159 33.4627 13.2484C33.4627 14.9809 34.7304 16.2802 36.4471 16.2802Z" fill="var(--fill-0, #1D1D1D)"/>
<path id="Vector_4" d="M44.9252 13.2229C44.9252 9.37572 48.1209 6.49672 52.3467 6.49672C56.5724 6.49672 59.7682 9.37572 59.7682 13.2229C59.7682 17.07 56.5724 20 52.3467 20C48.1209 20 44.9252 17.0955 44.9252 13.2229ZM52.3467 16.2802C54.0634 16.2802 55.3311 14.9554 55.3311 13.2229C55.3311 11.4904 54.0634 10.2165 52.3467 10.2165C50.63 10.2165 49.3623 11.4904 49.3623 13.2229C49.3623 14.9554 50.63 16.2802 52.3467 16.2802Z" fill="var(--fill-0, #1D1D1D)"/>
</g>
</svg>
