<svg preserveAspectRatio="none" width="100%" height="100%" overflow="visible" style="display: block;" viewBox="0 0 1687.98 585.525" fill="none" xmlns="http://www.w3.org/2000/svg">
<g id="Group 741">
<path id="Vector" d="M171.56 410.273V446.823C171.56 452.79 176.781 458.012 182.748 458.012C188.716 458.012 193.937 452.79 193.937 446.823V407.29C193.937 393.863 194.683 381.183 197.667 367.756L232.724 201.418H348.341L383.398 367.756C386.382 381.183 387.128 393.863 387.128 407.29V446.823C387.128 452.79 392.349 458.012 398.317 458.012C404.284 458.012 409.505 452.79 409.505 446.823V410.273C409.505 394.609 410.997 379.691 414.727 364.773L454.26 201.418H581.065L471.416 574.374H344.611L290.905 362.535L236.454 574.374H109.649L0 201.418H126.805L166.338 364.773C170.068 379.691 171.56 394.609 171.56 410.273Z" fill="var(--fill-0, #1D1D1D)"/>
<path id="Vector_2" d="M687.027 0C732.528 0 769.078 36.5497 769.078 82.0504C769.078 127.551 732.528 164.101 687.027 164.101C641.526 164.101 604.977 126.805 604.977 82.0504C604.977 37.2956 642.272 0 687.027 0ZM748.192 201.396V574.352H625.862V201.396H748.192Z" fill="var(--fill-0, #1D1D1D)"/>
<path id="Vector_3" d="M945.107 59.6523V161.842C945.107 197.646 934.664 226.737 919.746 254.335C911.541 268.508 904.828 282.68 900.352 296.106C898.861 302.074 902.59 307.295 907.811 309.533C914.525 312.516 921.238 308.787 923.476 302.074C944.361 239.417 997.321 190.187 1071.91 190.187C1158.44 190.187 1239 267.016 1239 387.854C1239 508.691 1158.44 585.52 1064.45 585.52C1021.94 585.52 969.722 567.618 942.123 531.069V574.332H822.777V59.6523H945.107ZM1029.4 476.617C1077.88 476.617 1113.68 438.576 1113.68 387.854C1113.68 337.132 1077.88 299.09 1029.4 299.09C980.911 299.09 945.107 337.132 945.107 387.854C945.107 438.576 980.911 476.617 1029.4 476.617Z" fill="var(--fill-0, #1D1D1D)"/>
<path id="Vector_4" d="M1268.78 387.112C1268.78 274.479 1359.04 190.191 1478.38 190.191C1597.73 190.191 1687.98 274.479 1687.98 387.112C1687.98 499.745 1597.73 585.525 1478.38 585.525C1359.04 585.525 1268.78 500.491 1268.78 387.112ZM1478.38 476.622C1526.87 476.622 1562.67 437.834 1562.67 387.112C1562.67 336.39 1526.87 299.095 1478.38 299.095C1429.9 299.095 1394.09 336.39 1394.09 387.112C1394.09 437.834 1429.9 476.622 1478.38 476.622Z" fill="var(--fill-0, #1D1D1D)"/>
</g>
</svg>
